<?xml version="1.0" encoding="UTF-8"?>
<!DOCTYPE svg PUBLIC "-//W3C//DTD SVG 1.1//EN" "http://www.w3.org/Graphics/SVG/1.1/DTD/svg11.dtd">
<!-- Creator: CorelDRAW 2020 (64-Bit) -->
<svg xmlns="http://www.w3.org/2000/svg" xml:space="preserve" width="50.8mm" height="25.4mm" version="1.1" style="shape-rendering:geometricPrecision; text-rendering:geometricPrecision; image-rendering:optimizeQuality; fill-rule:evenodd; clip-rule:evenodd"
viewBox="0 0 5080 2540"
 xmlns:xlink="http://www.w3.org/1999/xlink"
 xmlns:xodm="http://www.corel.com/coreldraw/odm/2003">
 <defs>
  <style type="text/css">
   <![CDATA[
    .fil1 {fill:#0C89C6}
    .fil0 {fill:#EB1F24}
   ]]>
  </style>
 </defs>
 <g id="Layer_x0020_1">
  <metadata id="CorelCorpID_0Corel-Layer"/>
  <g id="_2124065720320">
   <path class="fil0" d="M3976.2 1237.83c0.65,29.28 12.45,42.66 14.56,67.93 19.96,-1.67 42.33,-11.89 64.95,-17.53 53.73,-13.4 169.88,-31.53 197.26,31.9 10.95,25.37 15.97,69.56 9.52,97.24l-112.04 9.27c-42.51,4.81 -67.47,10.03 -99.92,26.23 -74.69,37.28 -103.45,75.39 -103.45,163.44 0,108.38 84.23,145.57 179.54,145.57 65.84,0 115.17,-41.08 155.28,-67.93 0,65.54 4.85,53.38 97.05,53.38 0,-90.44 10.49,-395.43 -13.08,-457.6 -55.93,-147.49 -295.58,-101.69 -389.67,-51.9zm289.58 256.31c0,84.67 0,124.25 0,124.25 -44.42,45.03 -100.33,79.45 -161.34,47.85 -6.64,-3.43 -12.56,-7.22 -17.71,-11.34 -5.22,-4.17 -9.68,-8.71 -13.36,-13.56 -86.4,-114.16 100.49,-155.99 192.41,-147.2z"/>
   <path class="fil0" d="M2957.2 1242.68c0,18.12 12.6,39.65 14.55,63.08 22.98,-1.91 217.37,-74.5 260.67,11.06 12.48,24.65 15.92,64.49 15.92,100.55l-112.51 8.79c-250.41,31.21 -236.27,225.04 -160.61,298.29 30.77,29.78 78.7,37.43 132.4,37.43 65.84,0 115.17,-41.08 155.28,-67.93 0,66 8,53.38 97.05,53.38 0,-90.44 10.49,-395.43 -13.09,-457.6 -67.54,-178.16 -389.66,-66.91 -389.66,-47.05zm290.47 255.93c0,84.67 0,124.25 0,124.25 -44.42,45.03 -100.33,79.45 -161.34,47.85 -6.64,-3.43 -12.56,-7.22 -17.71,-11.34 -5.22,-4.17 -9.68,-8.71 -13.36,-13.56 -86.4,-114.16 100.49,-155.99 192.41,-147.2z"/>
   <path class="fil0" d="M3898.56 1203.86l-116.46 0c-9.6,115.38 -53.24,263.16 -90.36,375.46 -5.96,18.05 -8.41,37.3 -21.24,46.7 -0.65,-29.06 -18.85,-80.17 -27.02,-108.85l-63.34 -208.39c-11.49,-34.23 -21.1,-77.12 -35.8,-104.92l-121.32 0 162.84 526.43c10.33,29.22 2.57,16.6 75.09,16.87 70.31,0.25 65.52,30.68 107.99,-76.07 19.42,-48.82 36.79,-94.71 52.6,-146.36 26.9,-87.89 40.21,-149.67 61.53,-234.46 5.76,-22.92 15.49,-61.53 15.49,-86.41z"/>
   <path class="fil0" d="M2729.13 1674.54c0,47.16 -13.62,97.61 -30.62,129.5 -16.84,31.6 -48.72,65.65 -85.83,74.3l53.38 67.93c56.76,-13.22 109.83,-57.31 136.23,-101.54 29.9,-50.08 48.16,-109.05 48.16,-189.6l0 -645.37 -121.32 0 0 664.78z"/>
   <path class="fil0" d="M1593.68 1368.84c-3.74,-14 -31.49,-49.44 -43.72,-67.89 -42.63,-64.23 -89.65,-149.01 -110.71,-224.1 -23.94,-85.34 41.94,-176.21 94.97,-228.45 21.79,-21.47 34.45,-39.89 55.71,-60.74 12,-11.76 17.35,-13.77 29.18,-24.19l143.23 -138.21c154.46,-153.21 111.03,-397.5 59.4,-411.29 25.63,110 -4.32,199.73 -60.13,284.39 -47.78,72.49 -123.85,119.21 -188.42,175.51 -46.12,40.21 -87.68,72.84 -131.15,116.32 -199.81,199.82 -129.08,252.89 31.04,451.77 11.24,13.96 13.88,17.99 27.21,31.03 22.92,22.39 56.26,70.99 93.39,95.85z"/>
   <path class="fil1" d="M812.44 2135.52c0,70.91 181.83,81.75 236.34,88.77 246.27,31.7 720.22,22.42 948.38,-15.26 67.28,-11.11 143.99,-29 199.7,-52.62 32.47,-13.77 74.91,-33.66 95.16,-60.58 19.99,-26.55 -4.81,-47.43 -23.86,-52.51 20.74,43.24 -17.18,56.14 -43.63,67.97 -58.12,26 -255.4,51.72 -320.3,53.34 -31.9,0.8 -82.47,5.65 -112.32,8.99l-368.06 10.42c-82.22,0 -183.15,-7.03 -263.52,-17.92 -22.76,-3.09 -207.28,-17.94 -212.02,-59.72 -4.23,-37.36 109.82,-61.33 141.12,-67.53 24.86,-4.93 45.34,-7.04 57.83,-14.96 -85.43,0 -210,16.09 -279.5,55.32 -17.28,9.76 -55.32,35.12 -55.32,56.29z"/>
   <path class="fil0" d="M1608.24 1009.76c0,195.03 199.43,242.65 114.49,381.38 -10.97,17.93 -31.96,41.85 -36.85,60.19 18.27,-4.88 39.58,-23.29 53.47,-33.87 10.59,-8.07 13.04,-11.75 23.03,-20.64 35.4,-31.49 7.89,-0.27 45.97,-46.23 8.39,-10.13 13.05,-16.41 19.85,-28.67 54.59,-98.39 -7.71,-161.74 -62.64,-251.12 -47.37,-77.05 -45.2,-118.35 7.54,-187.32 80.22,-104.89 286.03,-217.26 300.97,-237.65 -59.3,1.33 -238.01,88.87 -290.22,122.25 -77.75,49.69 -175.61,136.99 -175.61,241.68z"/>
   <path class="fil1" d="M1220.05 1931.72c0,89.66 254.49,106.75 359.07,106.75 60.2,0 138.04,-10.9 191.21,-22.3 29.8,-6.38 57.59,-13.98 85.41,-21.34 27.43,-7.25 55.96,-18.12 82.46,-24.3l0 -9.7c-20.46,-1.7 -61.2,-24.59 -77.48,-34.13 -45.92,-26.93 -21.66,-24.67 -81.29,-13.06 -43.86,8.54 -476.9,49.63 -476.9,-20.75 0,-13.1 2.32,-13.37 4.86,-24.26 -34.9,0.78 -87.34,28.53 -87.34,63.09z"/>
   <path class="fil1" d="M1516.04 1800.7c161.04,0 215.67,0.55 373.65,-38.8 29.83,-7.44 54.93,-17.86 82.48,-24.28 -11.11,-9.65 -21.63,-9.56 -40.91,-22.18 -10.59,-6.93 -32.27,-25.01 -40.12,-28.15 -15.01,-5.99 -93.16,9.13 -117.51,11.92 -34.99,4.02 -529.32,55.86 -529.32,-24.67 0,-21.75 4.49,-21.39 19.41,-43.67 -44.1,10.27 -82.07,24.01 -102.02,58.35 -26.72,46.01 22.84,67.14 62.07,78.64 74.79,21.94 193.56,32.84 292.27,32.84z"/>
   <path class="fil1" d="M1433.55 1572.64c139.1,0 360.32,-25 501.29,-47.03 33.85,-5.29 102.53,-38.77 119.81,-64.57 -53.34,4.43 -168.09,26.79 -252.18,34.1 -125.54,10.9 -551.71,47.49 -660.06,-9.84 2.98,-35.78 45.63,-48.45 83.18,-62.39 18.21,-6.76 34.85,-12.4 54.72,-18.06 39.17,-11.16 45.16,-6.4 56.19,-21.45 -79.91,0 -271.02,49.72 -335.8,96.12 -12.09,8.65 -25.97,21.07 -11.49,36.98 36.86,40.53 348.61,56.14 444.34,56.14z"/>
   <path class="fil1" d="M1700.43 2310.2c-193.25,0 -299.09,-0.43 -489.77,-14.87 -28.15,-2.14 -67.48,-9.39 -97.37,-9.39 12.79,17.45 -3.92,3.46 18.07,11.05 146.38,50.49 412.47,59.07 574.12,57.07l168.31 -11.22c117.77,-15.45 290.85,-29.6 394.45,-81.08 41.07,-20.41 121.7,-59.06 126.08,-111.69 -16.38,8.67 -16.71,11 -31.94,21.44 -157.86,108.3 -473.25,138.69 -661.95,138.69z"/>
   <path class="fil1" d="M2117.74 1397.95c25.81,-12.38 189.24,-30.25 189.24,121.31 0,65.66 -71.18,135.97 -112.28,169.16l-130.34 97.72c130.77,-30.46 401.17,-160.66 317.24,-331.79 -19.11,-38.95 -83.62,-90.36 -137.7,-90.36 -38.25,0 -57.01,-2.77 -92.95,8.95 -17.71,5.77 -28.71,8.14 -33.21,25.01z"/>
   <path class="fil0" d="M4427.47 1218.41c0,38.33 -2.02,15.27 4.85,29.12 13.15,-5.31 0.99,3.37 8.1,-6.46l6.46 -12.95c1.58,18.97 -2.94,14.74 14.55,19.41l5.45 -19.22c0.07,0.85 0.59,1.49 0.85,3.22 1.45,9.32 6.01,13.13 13.12,16l0 -43.67c-17.86,1.49 -17.93,1.56 -19.42,19.41l-9.7 0c-5.16,-22.15 -1.01,-17.4 -19.41,-19.41 -3.32,5.92 -4.85,5.19 -4.85,14.55z"/>
   <path class="fil0" d="M4412.91 1247.53c0,-26.79 -1.67,-21.14 4.54,-34.28 1.88,-3.98 0.43,3.71 5.17,-9.39l-33.97 0c12.54,18.73 5.47,1.61 9.52,24.44 3.29,18.49 -5.27,13.89 14.74,19.23z"/>
   <polygon class="fil0" points="1593.68,1368.84 1593.68,1373.69 1599.34,1369.65 "/>
  </g>
 </g>
</svg>
